<svg width="272" height="48" viewBox="0 0 272 48" fill="none" xmlns="http://www.w3.org/2000/svg">
<path d="M271.411 30.1632C271.074 30.2529 270.219 31.4075 269.11 31.4075C267.806 31.4075 266.597 29.8566 265.995 29.0526C265.79 28.7786 265.63 28.5372 265.43 28.26C265.324 28.1149 265.258 27.9942 265.156 27.8555C264.559 27.0532 263.802 25.8969 263.189 25.0309C262.939 24.6803 262.344 23.7491 262.047 23.4556C261.915 23.3251 261.866 23.2191 261.728 23.0968L261.341 22.7657C260.398 22.0367 259.795 21.7106 258.657 21.3746C258.272 21.2605 257.887 21.236 257.491 21.1447V20.9555L258.588 20.8837C258.968 20.8511 259.258 20.8055 259.621 20.7451C261.457 20.4401 263.166 19.7161 264.585 18.6544C265.883 17.6824 267.073 16.1347 267.52 14.5349C267.891 13.2041 267.868 12.9644 267.868 11.6385C267.868 10.3127 267.359 8.86937 266.692 7.76041C265.377 5.57672 263.101 4.31445 260.668 3.59852C259.453 3.24136 257.747 3 256.173 3H244.289V3.3017C244.289 3.455 244.428 3.41912 244.589 3.41749C245.339 3.40608 246.925 3.36368 247.481 3.5447C248.378 3.83825 248.149 4.82327 248.229 5.36145C248.272 5.64358 248.28 27.5685 248.252 29.7506C248.249 29.9773 248.21 30.0865 248.213 30.3524C248.216 30.7584 248.169 31.1531 248.024 31.4091C247.699 31.9799 246.788 31.975 246.101 31.975H244.289C244.289 32.1642 244.323 32.1446 244.327 32.3142H256.814V31.9375C255.93 31.9375 253.032 32.0403 252.385 31.7255C251.786 31.4336 251.846 30.8335 251.784 30.3638C251.704 29.7636 251.757 19.1175 251.757 18.6576V6.92216C251.757 6.02846 251.859 4.69444 251.256 3.98992C251.161 3.87902 251.078 3.85945 251.039 3.71594H255.605C255.883 3.71431 255.998 3.75508 256.245 3.75508C257.085 3.75508 257.89 3.89207 258.578 4.0633C259.404 4.26879 260.216 4.59822 260.88 5.04344C263.319 6.68242 264.019 9.23142 264.019 12.2419C264.019 13.7994 263.707 15.321 263.114 16.5049C262.99 16.7528 262.874 16.9502 262.735 17.1817C262.409 17.7264 261.987 18.1635 261.522 18.5712C261.414 18.6658 261.338 18.7245 261.229 18.806C258.958 20.5119 256.393 20.3912 253.608 20.3912V21.1072C254.818 21.1072 255.54 21.1479 256.465 21.8345C257.075 22.2862 257.042 22.3613 257.429 22.7576C257.514 22.844 257.523 22.8782 257.6 22.9647C257.952 23.3691 258.257 23.8209 258.578 24.2498C258.693 24.4031 258.787 24.5433 258.892 24.6917L261.087 27.7773C261.503 28.3872 262.559 29.8631 262.995 30.3964C263.835 31.4254 265.198 32.7644 266.7 32.7644C267.977 32.7644 268.668 32.5148 269.688 31.9049C270.428 31.4613 270.782 31.1531 271.411 30.6475C271.498 30.5774 271.573 30.4926 271.681 30.4633C271.632 30.3899 271.487 30.2072 271.416 30.1615L271.411 30.1632Z" fill="white"/>
<path d="M123.709 4.08726C124.427 4.32862 125.001 4.63522 125.433 5.26798C125.814 5.82736 126.074 6.61179 126.188 7.41742L126.382 9.37279C126.395 9.65004 126.419 9.82291 126.419 10.0904C127.481 10.0904 127.266 10.0186 127.251 9.79029L126.715 1.83345C126.697 1.66873 126.688 1.39638 126.661 1.20884C126.625 0.972366 126.658 0.801128 126.607 0.584227C126.356 0.642937 126.418 0.621736 126.116 0.621736C126.116 1.39149 126.294 2.44501 126.305 2.96035H105.517L105.701 0.6674C105.656 0.538564 105.558 0.589119 105.369 0.572811C105.206 0.559764 105.192 0.509209 105.175 0.731002C105.127 1.32136 105.069 2.53471 104.998 3.04679L104.837 5.37562C104.832 5.56317 104.795 5.97087 104.772 6.14048L104.61 8.46931C104.607 8.83462 104.496 9.64514 104.496 10.0529C105.47 10.0529 105.331 10.3252 105.398 9.5212L105.577 7.51364C105.716 6.58733 105.869 5.9301 106.298 5.29082C106.694 4.70045 107.275 4.33025 108.009 4.09541C108.686 3.88014 109.723 3.75131 110.608 3.75131H114.193V29.1434C114.193 29.662 114.188 30.7905 114.064 31.164C113.828 31.8751 113.228 31.8506 112.611 31.8995C111.81 31.9615 109.835 31.9403 108.836 31.9354C108.345 31.9321 108.382 31.8636 108.382 32.3121H123.397V31.9354H119.965C117.964 31.9354 117.701 31.6794 117.701 29.8985V3.75294C119.319 3.75294 122.306 3.61921 123.704 4.08726H123.709Z" fill="white"/>
<path d="M19.0139 29.9087C18.055 31.1514 16.4486 31.7727 14.1899 31.7727H6.38798V17.3692H9.73282C11.561 17.3692 12.8836 17.7051 13.699 18.377C14.5128 19.0489 14.9205 20.228 14.9205 21.9143H15.4783V12.2255H14.9205C14.9205 13.8841 14.5193 15.055 13.7202 15.7416C12.9195 16.4282 11.5903 16.7707 9.73282 16.7707H6.38798V3.8202H13.6762C15.9333 3.8202 17.5347 4.43502 18.4774 5.66467C19.42 6.89432 20.0201 8.96548 20.2778 11.8814H20.8779L20.2778 3.22168H0V3.77943H2.95833V31.7743H0V32.3745H20.8372L21.4373 23.6707H20.8372C20.5795 26.5866 19.9712 28.666 19.0155 29.9087H19.0139Z" fill="white"/>
<path d="M237.049 29.9087C236.09 31.1514 234.483 31.7727 232.225 31.7727H224.423V17.3692H227.766C229.594 17.3692 230.917 17.7051 231.732 18.377C232.548 19.0489 232.954 20.228 232.954 21.9143H233.511V12.2255H232.954C232.954 13.8841 232.554 15.055 231.753 15.7416C230.953 16.4282 229.624 16.7707 227.766 16.7707H224.423V3.8202H231.711C233.968 3.8202 235.57 4.43502 236.512 5.66467C237.455 6.89432 238.055 8.96548 238.313 11.8814H238.913L238.313 3.22168H218.033V3.77943H220.992V31.7743H218.033V32.3745H238.87L239.471 23.6707H238.87C238.613 26.5866 238.006 28.666 237.049 29.9087Z" fill="white"/>
<path d="M49.3863 26.0806C48.9476 26.9628 48.5594 27.6217 47.925 28.3295C47.8451 28.4175 47.7897 28.473 47.7049 28.5431L46.9645 29.2101C44.2638 31.3612 40.6907 31.9825 37.411 31.265C36.0053 30.9567 34.8001 30.3843 33.6813 29.4939C33.2492 29.1498 32.7974 28.7714 32.4647 28.3278L31.7798 27.4162C31.4552 26.9547 31.1617 26.4296 30.9171 25.9093C28.991 21.7947 28.7611 15.6514 29.8358 11.1552C29.8831 10.9595 29.9353 10.7768 29.9956 10.5795C30.3267 9.50149 30.7638 8.48384 31.3492 7.54448C31.9918 6.5138 32.8317 5.64456 33.8069 4.97755C34.107 4.77207 34.3891 4.6204 34.7104 4.44753C36.3347 3.57992 38.1074 3.36629 39.9633 3.36629C41.3006 3.36629 42.6248 3.78052 43.5854 4.2078C44.5998 4.65954 45.5587 5.31513 46.2763 6.07999C47.0558 6.91009 47.6543 7.82825 47.9201 9.02854C48.0734 9.71512 48.0115 10.4229 48.0522 11.2367C48.062 11.4291 48.0881 11.5498 48.0881 11.7961L48.124 13.5492L48.9296 13.5117C48.9296 13.2231 48.8954 13.042 48.8937 12.8039C48.8905 12.5691 48.9117 12.2853 48.8937 12.0586C48.8236 11.1552 48.7894 10.0266 48.791 9.14759L48.685 6.23819C48.6866 5.69349 48.6475 5.28904 48.6508 4.74434C48.6508 4.46058 48.6132 4.33011 48.6149 4.03656L48.5806 2.58185C48.5806 2.2932 48.5448 2.14153 48.5448 1.83656C48.0473 1.83656 48.1436 1.75013 48.1599 2.20839C48.1664 2.38778 48.1599 2.58675 48.1599 2.7694C48.1599 3.35976 48.2153 5.67555 48.3344 5.93974C48.2659 5.97562 48.1729 5.99356 48.0897 6.01476C47.9528 5.74078 47.8826 5.54345 47.7065 5.30535C47.4374 4.94167 46.1393 4.18496 45.756 3.98763C45.6239 3.91914 45.5163 3.87837 45.394 3.81313C45.0417 3.62559 44.6373 3.48044 44.2557 3.34672C40.826 2.12848 36.5842 2.54598 33.4644 3.94197C33.1024 4.10505 32.7257 4.26161 32.393 4.47851C31.8385 4.83893 31.2661 5.15694 30.7475 5.56139C30.3332 5.88593 29.963 6.23819 29.5733 6.58555C28.9111 7.17428 28.099 8.32076 27.644 9.04322C27.3504 9.50964 27.1237 9.97932 26.8791 10.5028C26.2464 11.8499 25.5728 14.2815 25.5369 15.8617C25.532 16.0803 25.4994 16.1471 25.5011 16.3836C25.5011 16.6136 25.4913 16.7375 25.4717 16.912C25.4375 17.2316 25.5125 17.6671 25.5353 17.9525C25.5647 18.321 25.5484 18.67 25.5744 19.0305C25.5973 19.3517 25.6511 19.7236 25.6968 20.0562C26.1795 23.5495 27.6913 26.6236 30.1848 28.8546C30.5566 29.1873 30.9709 29.5461 31.3884 29.8103C32.9132 30.779 33.9635 31.3237 35.8618 31.8341C37.3442 32.2321 38.794 32.3495 40.4574 32.3495C43.2005 32.3495 45.7886 31.402 47.6331 29.8445C47.7277 29.7646 47.7929 29.6994 47.8826 29.626L48.3996 29.1318C48.4926 29.0242 48.5203 28.9606 48.6263 28.8513C48.9965 28.4632 50.0826 26.8731 50.1234 26.3431C49.9848 26.3089 49.8918 26.2648 49.7581 26.2094C49.6488 26.1654 49.4923 26.0903 49.3879 26.0822L49.3863 26.0806Z" fill="white"/>
<path d="M158.758 6.51808C155.589 3.6103 151.789 2.15723 147.358 2.15723C142.927 2.15723 139.199 3.6103 136.081 6.51808C132.961 9.42586 131.402 12.9909 131.402 17.2131C131.402 21.4353 132.961 25.0378 136.081 27.9309C139.199 30.824 142.958 32.2706 147.358 32.2706C151.758 32.2706 155.589 30.824 158.758 27.9309C161.925 25.0395 163.51 21.4663 163.51 17.2131C163.51 12.9599 161.927 9.42422 158.758 6.51808ZM156.049 27.8005C153.932 30.3756 151.034 31.6623 147.358 31.6623C143.683 31.6623 140.948 30.3756 138.863 27.8005C136.778 25.2254 135.737 21.6979 135.737 17.2131C135.737 12.7283 136.779 9.2008 138.863 6.62571C140.948 4.05063 143.78 2.7639 147.358 2.7639C150.936 2.7639 153.932 4.05063 156.049 6.62571C158.166 9.2008 159.226 12.7299 159.226 17.2131C159.226 21.6963 158.168 25.2254 156.049 27.8005Z" fill="white"/>
<path d="M85.3211 17.2131C85.3211 12.9892 83.7375 9.42422 80.5688 6.51808C77.4001 3.6103 73.6003 2.15723 69.1693 2.15723C64.7383 2.15723 61.0102 3.6103 57.8921 6.51808C54.7723 9.42586 53.2148 12.9909 53.2148 17.2131C53.2148 21.4353 54.7739 25.0378 57.8921 27.9309C61.0102 30.824 64.7693 32.2706 69.1693 32.2706C73.5693 32.2706 77.4001 30.824 80.5688 27.9309C83.7359 25.0395 85.3211 21.4663 85.3211 17.2131ZM69.1693 31.6623C65.5896 31.6623 62.7585 30.3756 60.6743 27.8005C58.5884 25.2254 57.548 21.6979 57.548 17.2131C57.548 12.7283 58.5901 9.2008 60.6743 6.62571C62.7585 4.05063 65.5896 2.7639 69.1693 2.7639C72.749 2.7639 75.7432 4.05063 77.86 6.62571C79.9768 9.2008 81.0369 12.7299 81.0369 17.2131C81.0369 21.6963 79.9785 25.2254 77.86 27.8005C75.7432 30.3756 72.8452 31.6623 69.1693 31.6623Z" fill="white"/>
<path d="M204.446 3.44804C207.53 3.44804 208.054 5.67576 206.02 10.1312L198.486 27.1604L187.613 3.49044H190.569V2.89519H180.7V3.49044H183.418L187.295 11.8485L180.52 27.1604L169.647 3.49044H172.604V2.89355H162.734V3.49044H165.453L178.899 32.4818L187.706 12.7324L196.866 32.4818L206.832 10.1312C207.944 7.63439 209.048 5.89592 210.146 4.91579C211.242 3.93729 212.411 3.44641 213.651 3.44641V2.89355H204.448V3.44641L204.446 3.44804Z" fill="white"/>
<path d="M77.9434 45.6834H78.8224V43.1948H81.9095V42.4381H78.8224V40.2919H82.2879V39.5254H77.9434V45.6834Z" fill="white"/>
<path d="M84.4064 42.9306H87.4952V42.182H84.4064V40.2919H87.8735V39.5254H83.5273V45.6834H87.9958V44.9186H84.4064V42.9306Z" fill="white"/>
<path d="M93.2038 43.5545C93.5854 43.3849 93.8773 43.1403 94.0828 42.819C94.2883 42.4994 94.391 42.1161 94.391 41.6709C94.391 41.2257 94.2883 40.8408 94.0828 40.5195C93.8773 40.1966 93.5838 39.9504 93.2038 39.7808C92.8222 39.6112 92.3623 39.5264 91.8225 39.5264H89.4219V45.6844H90.3009V43.8106H91.8225C91.9594 43.8106 92.0752 43.7894 92.2024 43.778L93.5381 45.6844H94.497L93.026 43.61C93.0831 43.5888 93.15 43.5806 93.2038 43.5562V43.5545ZM91.7964 43.062H90.3009V40.2912H91.7964C92.359 40.2912 92.7863 40.4119 93.0766 40.6516C93.3669 40.8914 93.512 41.2322 93.512 41.6725C93.512 42.1129 93.3669 42.4537 93.0766 42.6983C92.7863 42.9413 92.3606 43.0637 91.7964 43.0637V43.062Z" fill="white"/>
<path d="M96.8869 40.9065C97.1071 40.6961 97.368 40.5314 97.6697 40.414C97.9714 40.2966 98.2992 40.2379 98.6515 40.2379C99.0037 40.2379 99.3185 40.295 99.6153 40.4091C99.9121 40.5233 100.186 40.7043 100.437 40.9506L100.982 40.4059C100.701 40.0895 100.357 39.8514 99.9529 39.6932C99.5484 39.535 99.1032 39.4551 98.6156 39.4551C98.128 39.4551 97.6942 39.5334 97.2962 39.6883C96.8967 39.8432 96.5493 40.0634 96.2541 40.3488C95.9573 40.6325 95.7274 40.9652 95.5627 41.3468C95.3979 41.7285 95.3164 42.1476 95.3164 42.6042C95.3164 43.0609 95.3979 43.4816 95.5627 43.8616C95.7274 44.2432 95.9557 44.5759 96.2492 44.8597C96.5428 45.1434 96.8885 45.3636 97.2864 45.5202C97.686 45.6751 98.1214 45.7534 98.5976 45.7534C99.0314 45.7534 99.4522 45.6865 99.8599 45.556C100.268 45.4239 100.623 45.2299 100.928 44.9706V42.5683H100.083V44.5645C99.9251 44.6689 99.7604 44.7569 99.5859 44.8156C99.2842 44.9184 98.9695 44.9689 98.64 44.9689C98.2878 44.9689 97.9632 44.9102 97.6632 44.7928C97.3647 44.6754 97.1054 44.5107 96.8853 44.2954C96.6651 44.0818 96.4955 43.829 96.3748 43.5387C96.2541 43.2484 96.1938 42.9369 96.1938 42.6026C96.1938 42.2683 96.2541 41.947 96.3748 41.6567C96.4955 41.3664 96.6651 41.1153 96.8853 40.9049L96.8869 40.9065Z" fill="white"/>
<path d="M104.465 39.5254L101.676 45.6834H102.583L103.259 44.1439H106.534L107.211 45.6834H108.134L105.337 39.5254H104.466H104.465ZM103.568 43.4394L104.895 40.4175L106.223 43.4394H103.568Z" fill="white"/>
<path d="M113.465 44.1146L109.77 39.5254H109.049V45.6834H109.928V41.0959L113.623 45.6834H114.344V39.5254H113.465V44.1146Z" fill="white"/>
<path d="M118.047 39.5254L115.258 45.6834H116.165L116.841 44.1439H120.116L120.793 45.6834H121.716L118.919 39.5254H118.048H118.047ZM117.15 43.4394L118.477 40.4175L119.805 43.4394H117.15Z" fill="white"/>
<path d="M123.826 46.5643H124.593L127.494 38.2764H126.729L123.826 46.5643Z" fill="white"/>
<path d="M134.022 41.2767C133.669 41.0777 133.265 40.9782 132.808 40.9782C132.422 40.9782 132.068 41.0663 131.748 41.2424C131.523 41.3664 131.342 41.549 131.181 41.761V39.1582H130.336V45.6848H131.145V44.915C131.306 45.1417 131.494 45.3374 131.73 45.4695C132.05 45.6489 132.409 45.737 132.808 45.737C133.265 45.737 133.671 45.6375 134.022 45.4385C134.372 45.2396 134.653 44.9607 134.858 44.6036C135.064 44.2464 135.166 43.8289 135.166 43.3543C135.166 42.8798 135.064 42.4639 134.858 42.11C134.653 41.7545 134.374 41.4789 134.022 41.2783V41.2767ZM134.105 44.2187C133.966 44.4682 133.779 44.6606 133.542 44.7944C133.304 44.9297 133.037 44.9966 132.737 44.9966C132.436 44.9966 132.179 44.9297 131.941 44.7944C131.703 44.659 131.515 44.4682 131.378 44.2187C131.239 43.9692 131.171 43.6805 131.171 43.3527C131.171 43.0249 131.239 42.7297 131.378 42.4867C131.517 42.2437 131.704 42.0546 131.941 41.9192C132.177 41.7838 132.443 41.717 132.737 41.717C133.03 41.717 133.304 41.7838 133.542 41.9192C133.779 42.0546 133.968 42.2437 134.105 42.4867C134.242 42.7297 134.312 43.0184 134.312 43.3527C134.312 43.687 134.243 43.9692 134.105 44.2187Z" fill="white"/>
<path d="M137.89 44.7476L136.264 41.0212H135.385L137.442 45.6723L137.293 46.0001C137.176 46.2692 137.05 46.4584 136.915 46.5627C136.779 46.6687 136.61 46.7209 136.404 46.7209C136.246 46.7209 136.096 46.6916 135.956 46.6329C135.816 46.5742 135.687 46.4893 135.569 46.3785L135.209 47.0112C135.362 47.1515 135.543 47.2591 135.754 47.3325C135.966 47.4059 136.183 47.4418 136.404 47.4418C136.646 47.4418 136.866 47.4026 137.065 47.3227C137.264 47.2428 137.448 47.1107 137.614 46.9231C137.781 46.7356 137.932 46.4779 138.068 46.1485L140.328 41.0195H139.501L137.89 44.746V44.7476Z" fill="white"/>
<path d="M147.814 39.5254H142.721V40.2919H144.833V45.6834H145.703V40.2919H147.814V39.5254Z" fill="white"/>
<path d="M153.233 39.5254H152.274L150.566 41.8885L148.844 39.5254H147.841L150.013 42.5278L147.699 45.6834H148.712L150.534 43.1458L152.38 45.6834H153.391L151.062 42.4984L153.233 39.5254Z" fill="white"/>
<path d="M153.277 40.2919H155.389V45.6834H156.26V40.2919H158.37V39.5254H153.277V40.2919Z" fill="white"/>
<path d="M162.766 40.9065C162.986 40.6961 163.247 40.5314 163.549 40.414C163.851 40.2966 164.178 40.2379 164.531 40.2379C164.883 40.2379 165.198 40.295 165.495 40.4091C165.79 40.5233 166.065 40.7043 166.316 40.9506L166.863 40.4059C166.581 40.0895 166.238 39.8514 165.834 39.6932C165.429 39.535 164.984 39.4551 164.496 39.4551C164.009 39.4551 163.575 39.5334 163.177 39.6883C162.778 39.8432 162.43 40.0634 162.135 40.3488C161.838 40.6325 161.608 40.9652 161.444 41.3468C161.279 41.7285 161.197 42.1476 161.197 42.6042C161.197 43.0609 161.279 43.4816 161.444 43.8616C161.608 44.2432 161.837 44.5759 162.13 44.8597C162.424 45.1434 162.769 45.3636 163.169 45.5202C163.567 45.6751 164.004 45.7534 164.479 45.7534C164.912 45.7534 165.333 45.6865 165.741 45.556C166.148 45.4239 166.504 45.2299 166.809 44.9706V42.5683H165.964V44.5645C165.806 44.6689 165.641 44.7569 165.467 44.8173C165.165 44.92 164.85 44.9706 164.521 44.9706C164.169 44.9706 163.844 44.9119 163.546 44.7944C163.246 44.677 162.988 44.5123 162.768 44.297C162.548 44.0834 162.378 43.8306 162.257 43.5403C162.137 43.25 162.076 42.9385 162.076 42.6042C162.076 42.2699 162.137 41.9486 162.257 41.6583C162.378 41.368 162.548 41.1169 162.768 40.9065H162.766Z" fill="white"/>
<path d="M172.27 43.5545C172.651 43.3849 172.945 43.1403 173.151 42.819C173.356 42.4994 173.459 42.1161 173.459 41.6709C173.459 41.2257 173.356 40.8408 173.151 40.5195C172.945 40.1966 172.651 39.9504 172.27 39.7808C171.888 39.6112 171.428 39.5264 170.889 39.5264H168.486V45.6844H169.367V43.8106H170.889C171.026 43.8106 171.143 43.7894 171.269 43.778L172.604 45.6844H173.563L172.094 43.61C172.151 43.5888 172.218 43.5806 172.271 43.5562L172.27 43.5545ZM170.862 43.062H169.367V40.2912H170.862C171.425 40.2912 171.852 40.4119 172.143 40.6516C172.433 40.8914 172.578 41.2322 172.578 41.6725C172.578 42.1129 172.433 42.4537 172.143 42.6983C171.852 42.943 171.427 43.0637 170.862 43.0637V43.062Z" fill="white"/>
<path d="M179.999 40.3488C179.702 40.0634 179.357 39.8448 178.96 39.6883C178.566 39.5334 178.132 39.4551 177.662 39.4551C177.192 39.4551 176.75 39.535 176.353 39.6932C175.953 39.8514 175.607 40.0732 175.314 40.3569C175.02 40.6407 174.792 40.975 174.627 41.355C174.462 41.7366 174.381 42.1525 174.381 42.6042C174.381 43.056 174.462 43.4718 174.627 43.8534C174.792 44.2351 175.02 44.5677 175.314 44.8515C175.607 45.1369 175.955 45.3571 176.356 45.5153C176.757 45.6735 177.192 45.7534 177.662 45.7534C178.132 45.7534 178.564 45.6751 178.96 45.5202C179.357 45.3652 179.702 45.1451 179.999 44.8597C180.296 44.5759 180.524 44.2416 180.686 43.8616C180.845 43.48 180.927 43.0609 180.927 42.6042C180.927 42.1476 180.845 41.7268 180.686 41.3468C180.524 40.9652 180.296 40.6325 179.999 40.3488ZM179.867 43.5468C179.746 43.8339 179.58 44.085 179.365 44.2987C179.151 44.5123 178.898 44.6786 178.608 44.7961C178.318 44.9135 178.003 44.9722 177.662 44.9722C177.321 44.9722 176.998 44.9135 176.708 44.7961C176.418 44.6786 176.163 44.5139 175.948 44.2987C175.731 44.085 175.563 43.8339 175.443 43.5468C175.322 43.2598 175.263 42.9451 175.263 42.6058C175.263 42.2666 175.322 41.9519 175.443 41.6649C175.563 41.3778 175.731 41.1267 175.948 40.913C176.165 40.6994 176.419 40.5331 176.708 40.4156C176.997 40.2982 177.316 40.2395 177.662 40.2395C178.008 40.2395 178.318 40.2982 178.608 40.4156C178.898 40.5331 179.151 40.6994 179.365 40.913C179.58 41.1267 179.746 41.3778 179.867 41.6649C179.986 41.9519 180.046 42.2666 180.046 42.6058C180.046 42.9451 179.986 43.2598 179.867 43.5468Z" fill="white"/>
<path d="M186.573 42.9919C186.573 43.6785 186.421 44.1791 186.12 44.4955C185.818 44.8119 185.387 44.9701 184.831 44.9701C184.275 44.9701 183.853 44.8119 183.551 44.4955C183.249 44.1791 183.098 43.6768 183.098 42.9919V39.5264H182.219V43.0278C182.219 43.9198 182.45 44.5966 182.913 45.0598C183.377 45.5229 184.013 45.7545 184.823 45.7545C185.634 45.7545 186.276 45.5229 186.736 45.0598C187.196 44.5966 187.426 43.9198 187.426 43.0278V39.5264H186.573V42.9919Z" fill="white"/>
<path d="M193.012 39.7808C192.63 39.6112 192.171 39.5264 191.631 39.5264H189.229V45.6844H190.108V43.8204H191.631C192.171 43.8204 192.63 43.7339 193.012 43.5611C193.392 43.3882 193.686 43.1419 193.891 42.8223C194.097 42.5026 194.199 42.1194 194.199 41.6742C194.199 41.229 194.097 40.8441 193.891 40.5228C193.686 40.1999 193.392 39.9536 193.012 39.784V39.7808ZM192.885 42.6918C192.595 42.9332 192.167 43.0522 191.605 43.0522H190.109V40.2896H191.605C192.167 40.2896 192.595 40.4103 192.885 40.65C193.175 40.8897 193.32 41.2306 193.32 41.6709C193.32 42.1112 193.175 42.4505 192.885 42.6918Z" fill="white"/>
</svg>
